<svg xmlns="http://www.w3.org/2000/svg" xmlns:xlink="http://www.w3.org/1999/xlink" width="118" height="118" viewBox="0 0 118 118">
  <defs>
    <filter id="Rectangle_411831" x="0" y="0" width="118" height="118" filterUnits="userSpaceOnUse">
      <feOffset dy="3" input="SourceAlpha"/>
      <feGaussianBlur stdDeviation="3" result="blur"/>
      <feFlood flood-opacity="0.161"/>
      <feComposite operator="in" in2="blur"/>
      <feComposite in="SourceGraphic"/>
    </filter>
    <clipPath id="clip-path">
      <rect id="Rectangle_425239" data-name="Rectangle 425239" width="79" height="78" transform="translate(288.051 2823)" fill="#fff"/>
    </clipPath>
  </defs>
  <g id="Group_1205919" data-name="Group 1205919" transform="translate(-268.897 -2805.554)">
    <g id="Group_1203409" data-name="Group 1203409" transform="translate(-57.884 -1046.445)">
      <g transform="matrix(1, 0, 0, 1, 326.78, 3852)" filter="url(#Rectangle_411831)">
        <g id="Rectangle_411831-2" data-name="Rectangle 411831" transform="translate(9 6)" fill="#a9cbf1" stroke="#fff" stroke-width="2">
          <path d="M5,0H68a32,32,0,0,1,32,32V95a5,5,0,0,1-5,5H32A32,32,0,0,1,0,68V5A5,5,0,0,1,5,0Z" stroke="none"/>
          <path d="M5,1H68A31,31,0,0,1,99,32V95a4,4,0,0,1-4,4H32A31,31,0,0,1,1,68V5A4,4,0,0,1,5,1Z" fill="none"/>
        </g>
      </g>
    </g>
    <g id="Mask_Group_1108091" data-name="Mask Group 1108091" clip-path="url(#clip-path)">
      <g id="impact_8774847" transform="translate(288.549 2823)">
        <g id="Group_1206072" data-name="Group 1206072">
          <path id="Path_1298241" data-name="Path 1298241" d="M44.167,49.035a19.911,19.911,0,0,1-6.125.446l-1.6,3.811-5.9-1.579.526-4.1a19.956,19.956,0,0,1-6.691-5.143l-3.83,1.574q-1.526-2.64-3.051-5.284l3.276-2.529a19.927,19.927,0,0,1-1.106-8.366l-3.816-1.591q.789-2.951,1.583-5.9l4.1.53a19.921,19.921,0,0,1,5.139-6.7l-1.574-3.825Q27.754,8.859,30.4,7.329l2.529,3.276a19.957,19.957,0,0,1,6.739-1.172v7.318a12.737,12.737,0,1,0,2.994,25.118Z" fill="#b5b593" fill-rule="evenodd"/>
          <path id="Path_1298242" data-name="Path 1298242" d="M64.655,32.555c0,.54-.022,1.08-.07,1.622l3.816,1.6q-.789,2.946-1.579,5.9l-4.1-.53a19.875,19.875,0,0,1-5.139,6.7l1.574,3.83q-2.64,1.526-5.288,3.051l-2.526-3.276A20.726,20.726,0,0,1,49.1,52.1l-1.509-7.164A12.721,12.721,0,0,0,56.9,35.851a12.869,12.869,0,0,0,.438-3.295h7.32Z" fill="#b5b593" fill-rule="evenodd"/>
          <path id="Path_1298243" data-name="Path 1298243" d="M53.339,6.9a19.967,19.967,0,0,1,6.7,5.139l3.825-1.574q1.526,2.647,3.051,5.288l-3.273,2.526A19.962,19.962,0,0,1,64.8,25.02H57.491a12.748,12.748,0,0,0-9.441-12.3,12.922,12.922,0,0,0-3.3-.438V4.964q.81,0,1.627.067l1.591-3.816,5.9,1.579Z" fill="#b5b593" fill-rule="evenodd"/>
          <path id="Path_1298244" data-name="Path 1298244" d="M25.6,76.8H15.176V54.682H25.594V76.8Zm37.233,0H52.406V67.625H62.828Zm-29.035,0H44.211V62.359H33.793Z" fill="#8fcae5" fill-rule="evenodd"/>
          <path id="Path_1298245" data-name="Path 1298245" d="M39.667,20.185a9.132,9.132,0,1,1-9.132,9.132,9.13,9.13,0,0,1,9.132-9.132Z" fill="#ed2024" fill-rule="evenodd"/>
        </g>
        <path id="Path_1298246" data-name="Path 1298246" d="M1.212,78a1.21,1.21,0,1,1,0-2.42H13.97v-20.9a1.206,1.206,0,0,1,1.207-1.207H25.6a1.21,1.21,0,0,1,1.212,1.207v20.9h5.775V62.354a1.21,1.21,0,0,1,1.212-1.207H44.213a1.206,1.206,0,0,1,1.207,1.207V75.58H51.2V67.621a1.21,1.21,0,0,1,1.207-1.212H62.83a1.21,1.21,0,0,1,1.207,1.212V75.58H76.8a1.21,1.21,0,0,1,0,2.42H1.212Zm15.176-2.418h8V55.889h-8Zm18.613,0h8V63.566H35Zm18.617,0h8V68.828h-8ZM42.54,24.731a1.207,1.207,0,0,1,1.707,1.707l-2.87,2.875,2.87,2.87a1.208,1.208,0,0,1-1.707,1.711l-2.874-2.87-2.87,2.87a1.21,1.21,0,0,1-1.711-1.711l2.87-2.87-2.87-2.875A1.208,1.208,0,0,1,36.8,24.731l2.87,2.87Zm-2.874-5.763A10.343,10.343,0,1,1,29.324,29.311,10.342,10.342,0,0,1,39.667,18.968Zm5.6,4.741a7.924,7.924,0,1,0,0,11.206A7.922,7.922,0,0,0,45.269,23.709ZM54.644,6.193a21.149,21.149,0,0,1,5.727,4.4L63.4,9.343a1.209,1.209,0,0,1,1.53.557l3.025,5.245A1.2,1.2,0,0,1,67.65,16.7l-2.6,2a21.116,21.116,0,0,1,.959,6.315,1.205,1.205,0,0,1-1.207,1.2v0H57.491a1.206,1.206,0,0,1-1.207-1.309A11.545,11.545,0,0,0,44.752,13.482a1.205,1.205,0,0,1-1.2-1.207h0V4.955a1.205,1.205,0,0,1,1.318-1.2c.256,0,.5.009.735.017L46.858.744a1.208,1.208,0,0,1,1.429-.7l5.9,1.579a1.207,1.207,0,0,1,.87,1.406Zm1.582,3.866a18.64,18.64,0,0,0-3.4-2.078,1.209,1.209,0,0,1-.682-1.243l.393-3.056L48.676,2.647,47.512,5.429a1.209,1.209,0,0,1-1.239.8c-.111-.009-.217-.017-.314-.022v4.917A13.941,13.941,0,0,1,58.638,23.8H63.56a18.829,18.829,0,0,0-1.065-5.125h0a1.205,1.205,0,0,1,.4-1.362l2.441-1.885-2-3.459-2.794,1.15a1.214,1.214,0,0,1-1.437-.314,18.516,18.516,0,0,0-2.883-2.75Zm9.632,22.6c0,.253-.009.495-.017.73l3.025,1.26a1.212,1.212,0,0,1,.7,1.429l-1.579,5.9a1.21,1.21,0,0,1-1.406.875l-3.167-.412a21.006,21.006,0,0,1-4.4,5.727L60.268,51.2a1.2,1.2,0,0,1-.557,1.526c-7.491,4.324,1.128-.651-4.71,2.724l-.53.306a1.211,1.211,0,0,1-1.588-.34L50.911,52.85l-1.543.42a1.205,1.205,0,0,1-1.446-.906l-1.512-7.185a1.207,1.207,0,0,1,.938-1.429,11.526,11.526,0,0,0,8.781-11.2,1.206,1.206,0,0,1,1.207-1.207v0h7.318a1.21,1.21,0,0,1,1.2,1.321Zm-2.476,1.418c.009-.115.017-.222.027-.323H58.487A13.932,13.932,0,0,1,49,45.776L50.019,50.6q.431-.133.916-.306a1.22,1.22,0,0,1,1.362.4l1.885,2.446,3.459-2-1.15-2.8a1.214,1.214,0,0,1,.314-1.437,18.753,18.753,0,0,0,4.828-6.288,1.209,1.209,0,0,1,1.243-.682l3.056.393,1.03-3.861-2.786-1.164a1.205,1.205,0,0,1-.792-1.228ZM44.437,50.206a21.14,21.14,0,0,1-5.611.526l-1.265,3.02a1.2,1.2,0,0,1-1.424.7l-5.9-1.579a1.211,1.211,0,0,1-.87-1.406l.407-3.162a21.191,21.191,0,0,1-5.722-4.4l-3.034,1.246a1.21,1.21,0,0,1-1.53-.557L17.993,42h0l-1.526-2.644a1.205,1.205,0,0,1,.34-1.583l2.56-1.977a21.515,21.515,0,0,1-.947-7.154L15.4,27.385a1.208,1.208,0,0,1-.7-1.429h0l1.583-5.9a1.2,1.2,0,0,1,1.4-.87l3.167.407a21.1,21.1,0,0,1,4.4-5.727l-1.246-3.034a1.2,1.2,0,0,1,.513-1.5l5.284-3.056a1.207,1.207,0,0,1,1.588.345l1.977,2.56a21.062,21.062,0,0,1,6.31-.959,1.2,1.2,0,0,1,1.2,1.2h.009v7.318a1.21,1.21,0,0,1-1.314,1.207,11.531,11.531,0,1,0,2.811,22.739,1.208,1.208,0,0,1,1.463.928l1.509,7.159a1.21,1.21,0,0,1-.911,1.426Zm-3.4-1.924q.856-.061,1.7-.2l-1.012-4.806A13.942,13.942,0,1,1,38.458,15.6v-4.92a18.9,18.9,0,0,0-5.129,1.065v0a1.2,1.2,0,0,1-1.357-.4L30.087,8.9l-3.463,2,1.15,2.791a1.206,1.206,0,0,1-.314,1.437,18.753,18.753,0,0,0-4.828,6.288,1.2,1.2,0,0,1-1.239.682L18.336,21.7,17.3,25.564l2.782,1.159a1.207,1.207,0,0,1,.8,1.239,18.591,18.591,0,0,0,1.039,7.863,1.213,1.213,0,0,1-.4,1.362l-2.437,1.885,1,1.729,1,1.733,2.794-1.15a1.208,1.208,0,0,1,1.437.309,18.753,18.753,0,0,0,6.288,4.828,1.216,1.216,0,0,1,.682,1.243l-.393,3.056,3.856,1.034L36.9,49.072a1.213,1.213,0,0,1,1.239-.8,18.7,18.7,0,0,0,2.9.011Z"/>
      </g>
    </g>
  </g>
</svg>
