<svg xmlns="http://www.w3.org/2000/svg" xmlns:xlink="http://www.w3.org/1999/xlink" width="118" height="118" viewBox="0 0 118 118">
  <defs>
    <filter id="Rectangle_411831" x="0" y="0" width="118" height="118" filterUnits="userSpaceOnUse">
      <feOffset dy="3" input="SourceAlpha"/>
      <feGaussianBlur stdDeviation="3" result="blur"/>
      <feFlood flood-opacity="0.161"/>
      <feComposite operator="in" in2="blur"/>
      <feComposite in="SourceGraphic"/>
    </filter>
    <clipPath id="clip-path">
      <rect id="Rectangle_425239" data-name="Rectangle 425239" width="79" height="78" transform="translate(288.051 2823)" fill="#fff"/>
    </clipPath>
  </defs>
  <g id="Group_1205918" data-name="Group 1205918" transform="translate(-268.897 -2805.555)">
    <g id="Group_1203409" data-name="Group 1203409" transform="translate(-57.884 -1046.445)">
      <g transform="matrix(1, 0, 0, 1, 326.78, 3852)" filter="url(#Rectangle_411831)">
        <g id="Rectangle_411831-2" data-name="Rectangle 411831" transform="translate(9 6)" fill="#a9cbf1" stroke="#fff" stroke-width="2">
          <path d="M5,0H68a32,32,0,0,1,32,32V95a5,5,0,0,1-5,5H32A32,32,0,0,1,0,68V5A5,5,0,0,1,5,0Z" stroke="none"/>
          <path d="M5,1H68A31,31,0,0,1,99,32V95a4,4,0,0,1-4,4H32A31,31,0,0,1,1,68V5A4,4,0,0,1,5,1Z" fill="none"/>
        </g>
      </g>
    </g>
    <g id="Mask_Group_1108069" data-name="Mask Group 1108069" clip-path="url(#clip-path)">
      <g id="Page-1" transform="translate(288.551 2823)">
        <g id="_003---Leak-Protection" data-name="003---Leak-Protection">
          <path id="Path" d="M58.5,10.751v22.23a30.2,30.2,0,0,1-.806,7.332v.013a17.464,17.464,0,0,0-5.837,1.235A18.187,18.187,0,0,0,41.093,53.2a17.876,17.876,0,0,0-.793,5.3c0,.429.013.858.052,1.287a67.908,67.908,0,0,1-10.062,3.8,1.329,1.329,0,0,1-.78,0C4.186,56.069,1.3,42.458,1.3,32.981V10.751A1.283,1.283,0,0,1,2.236,9.5l27.3-8.151a1.383,1.383,0,0,1,.728,0L57.564,9.5a1.283,1.283,0,0,1,.936,1.248Z" fill="#ff5722" fill-rule="evenodd"/>
          <path id="Path-2" data-name="Path" d="M57.564,9.5l-27.3-8.151a1.383,1.383,0,0,0-.728,0L27.95,1.82,53.664,9.5a1.283,1.283,0,0,1,.936,1.248v22.23a30.2,30.2,0,0,1-.806,7.332v.013a17.464,17.464,0,0,0-5.837,1.235A18.187,18.187,0,0,0,37.193,53.2a17.876,17.876,0,0,0-.793,5.3c0,.429.013.858.052,1.287a64.625,64.625,0,0,1-8.512,3.3c.52.165,1.032.332,1.57.491a1.329,1.329,0,0,0,.78,0,67.908,67.908,0,0,0,10.062-3.8c-.039-.429-.052-.858-.052-1.287a17.876,17.876,0,0,1,.793-5.3A18.187,18.187,0,0,1,51.857,41.561a17.464,17.464,0,0,1,5.837-1.235v-.013a30.2,30.2,0,0,0,.806-7.332V10.751A1.283,1.283,0,0,0,57.564,9.5Z" fill="#d84315" fill-rule="evenodd"/>
          <path id="Path-3" data-name="Path" d="M53.3,13.65V32.981a23.282,23.282,0,0,1-1.443,8.567v.013A18.187,18.187,0,0,0,41.093,53.2H41.08c-1.742,1.586-5.9,3.419-11.18,5.07C9.191,51.8,6.5,41.379,6.5,32.981V13.65L29.9,6.669Z" fill="#f44335" fill-rule="evenodd"/>
          <path id="Path-4" data-name="Path" d="M29.9,6.669l-1.95.582,21.45,6.4V32.981a23.282,23.282,0,0,1-1.443,8.567v.013A18.187,18.187,0,0,0,37.193,53.2H37.18c-1.521,1.384-4.885,2.957-9.23,4.433q.945.324,1.95.637c5.278-1.651,9.438-3.484,11.18-5.07h.013A18.187,18.187,0,0,1,51.857,41.561v-.013A23.282,23.282,0,0,0,53.3,32.981V13.65Z" fill="#c81e1e" fill-rule="evenodd"/>
          <circle id="Oval" cx="18.2" cy="18.2" r="18.2" transform="translate(40.3 40.3)" fill="#a4c400"/>
          <path id="Path-5" data-name="Path" d="M58.5,40.3a17.7,17.7,0,0,0-1.9.114,18.2,18.2,0,0,1-.036,36.176A18.2,18.2,0,1,0,58.5,40.3Z" fill="#90ac00" fill-rule="evenodd"/>
          <path id="Path-6" data-name="Path" d="M29.11,49.375a12.3,12.3,0,0,1-8.2-3.836A10.461,10.461,0,0,1,21.19,31.2a30.291,30.291,0,0,0,3.1-4.047A41.185,41.185,0,0,0,29.9,13a41.185,41.185,0,0,0,5.608,14.153,30.336,30.336,0,0,0,3.138,4.087,10.434,10.434,0,0,1,.46,14.137,12.35,12.35,0,0,1-10,4Z" fill="#02a9f4" fill-rule="evenodd"/>
          <path id="Path-7" data-name="Path" d="M38.65,31.24a30.335,30.335,0,0,1-3.138-4.087A41.185,41.185,0,0,1,29.9,13a38.856,38.856,0,0,1-1.95,6.831,38.94,38.94,0,0,0,3.658,7.322,30.336,30.336,0,0,0,3.138,4.087,10.434,10.434,0,0,1,.46,14.137,12.232,12.232,0,0,1-7.272,3.869c.39.061.78.105,1.17.13a12.35,12.35,0,0,0,10-4A10.434,10.434,0,0,0,38.65,31.24Z" fill="#0377bc" fill-rule="evenodd"/>
          <g id="Group_1205923" data-name="Group 1205923">
            <path id="Path-8" data-name="Path" d="M29.143,64.832a2.631,2.631,0,0,0,.754.109,2.677,2.677,0,0,0,.76-.11c1.82-.547,3.554-1.121,5.139-1.706a1.3,1.3,0,1,0-.9-2.439c-1.534.566-3.211,1.122-5.014,1.654C5.429,55.087,2.6,42.111,2.6,32.981V10.751L29.9,2.6l27.3,8.147v22.23c0,.666-.012,1.344-.051,2.049A1.3,1.3,0,0,0,58.378,36.4a1.283,1.283,0,0,0,1.368-1.229c.042-.751.055-1.478.055-2.189V10.747a2.613,2.613,0,0,0-1.859-2.492L30.641.107a2.612,2.612,0,0,0-1.478,0L1.863,8.252A2.616,2.616,0,0,0,0,10.747v22.23c0,9.967,3.021,24.108,29.143,31.855Z" fill-rule="evenodd"/>
            <path id="Shape" d="M58.5,39A19.5,19.5,0,1,0,78,58.5,19.5,19.5,0,0,0,58.5,39Zm0,36.4A16.9,16.9,0,1,1,75.4,58.5,16.9,16.9,0,0,1,58.5,75.4Z"/>
            <path id="Path-9" data-name="Path" d="M68.068,52.3,53.378,64.541l-4.361-4.36a1.3,1.3,0,0,0-1.838,1.838l5.2,5.2a1.3,1.3,0,0,0,1.751.079l15.6-13a1.3,1.3,0,0,0-1.664-2Z" fill-rule="evenodd"/>
            <path id="Shape-2" data-name="Shape" d="M31.187,12.793a1.3,1.3,0,0,0-2.566,0A40.245,40.245,0,0,1,23.2,26.443a29.182,29.182,0,0,1-2.969,3.874,11.738,11.738,0,0,0-.273,16.11,13.569,13.569,0,0,0,9.07,4.241c.294.018.585.027.876.027a13.637,13.637,0,0,0,10.166-4.449,11.747,11.747,0,0,0-.465-15.891A29.046,29.046,0,0,1,36.6,26.442a40.247,40.247,0,0,1-5.416-13.649Zm6.959,31.712a11.18,11.18,0,0,1-16.294.14,9.158,9.158,0,0,1,.3-12.567,31.889,31.889,0,0,0,3.234-4.22A41.523,41.523,0,0,0,29.9,18.225a41.507,41.507,0,0,0,4.515,9.633A31.84,31.84,0,0,0,37.7,32.12a9.161,9.161,0,0,1,.446,12.385Z"/>
            <path id="Path-10" data-name="Path" d="M51.957,34.749a1.3,1.3,0,0,0,2.6.14c.036-.65.047-1.288.047-1.908V13.65a1.3,1.3,0,0,0-.928-1.245l-23.4-6.984a1.316,1.316,0,0,0-.744,0L6.132,12.4A1.3,1.3,0,0,0,5.2,13.65V32.981c0,8.815,2.762,19.8,24.31,26.52a1.29,1.29,0,0,0,.78,0c1.309-.411,2.56-.835,3.714-1.26a1.3,1.3,0,0,0-.9-2.44c-1,.369-2.08.737-3.2,1.1C10.322,50.673,7.8,40.855,7.8,32.981V14.621L29.9,8.026,52,14.621v18.36c0,.575-.009,1.161-.043,1.768Z" fill-rule="evenodd"/>
          </g>
          <path id="Path-11" data-name="Path" d="M29.425,45.484h-.081a8.382,8.382,0,0,1-5.6-2.622,5.942,5.942,0,0,1-1.618-3.782,1.3,1.3,0,1,1,2.6-.156,3.38,3.38,0,0,0,.91,2.151A5.8,5.8,0,0,0,29.5,42.9a1.3,1.3,0,0,1-.077,2.6Z" fill="#f5f5f5" fill-rule="evenodd"/>
        </g>
      </g>
    </g>
  </g>
</svg>
