<svg xmlns="http://www.w3.org/2000/svg" xmlns:xlink="http://www.w3.org/1999/xlink" width="118" height="118" viewBox="0 0 118 118">
  <defs>
    <filter id="Rectangle_411831" x="0" y="0" width="118" height="118" filterUnits="userSpaceOnUse">
      <feOffset dy="3" input="SourceAlpha"/>
      <feGaussianBlur stdDeviation="3" result="blur"/>
      <feFlood flood-opacity="0.161"/>
      <feComposite operator="in" in2="blur"/>
      <feComposite in="SourceGraphic"/>
    </filter>
    <clipPath id="clip-path">
      <rect id="Rectangle_425239" data-name="Rectangle 425239" width="79" height="78" transform="translate(288.051 2823)" fill="#fff"/>
    </clipPath>
  </defs>
  <g id="Group_1206848" data-name="Group 1206848" transform="translate(-268.897 -2805.555)">
    <g id="Group_1203409" data-name="Group 1203409" transform="translate(-57.884 -1046.445)">
      <g transform="matrix(1, 0, 0, 1, 326.78, 3852)" filter="url(#Rectangle_411831)">
        <g id="Rectangle_411831-2" data-name="Rectangle 411831" transform="translate(9 6)" fill="#a9cbf1" stroke="#fff" stroke-width="2">
          <path d="M5,0H68a32,32,0,0,1,32,32V95a5,5,0,0,1-5,5H32A32,32,0,0,1,0,68V5A5,5,0,0,1,5,0Z" stroke="none"/>
          <path d="M5,1H68A31,31,0,0,1,99,32V95a4,4,0,0,1-4,4H32A31,31,0,0,1,1,68V5A4,4,0,0,1,5,1Z" fill="none"/>
        </g>
      </g>
    </g>
    <g id="Mask_Group_1108089" data-name="Mask Group 1108089" clip-path="url(#clip-path)">
      <g id="pan-food-fish-cooking" transform="translate(285.959 2820.406)">
        <path id="Path_1298217" data-name="Path 1298217" d="M59.731,55.843l2.475,2.475-3.888,3.888-2.475-2.475a5.243,5.243,0,0,0-6.48-.687,29.847,29.847,0,1,1,9.681-9.681,5.243,5.243,0,0,0,.687,6.48Z" fill="#57565c"/>
        <circle id="Ellipse_13171" data-name="Ellipse 13171" cx="25.919" cy="25.919" r="25.919" transform="translate(7.776 7.776)" fill="#acabb1"/>
        <path id="Path_1298218" data-name="Path 1298218" d="M50.543,32.4l2.592,9.072-7.892-4.925c-2.592,3.655-8.527,6.221-15.435,6.221A21.635,21.635,0,0,1,16.329,38.62a7.776,7.776,0,0,0,0-12.441,21.635,21.635,0,0,1,13.478-4.147c7.193,0,13.323,2.786,15.733,6.687l6.3-5.391Z" fill="#ffb655"/>
        <path id="Path_1298219" data-name="Path 1298219" d="M79.3,74.039a5.266,5.266,0,0,1-9.15,3.551L57.023,63.5l6.48-6.48L77.59,70.151A5.254,5.254,0,0,1,79.3,74.039Z" fill="#2488ff"/>
        <path id="Path_1298220" data-name="Path 1298220" d="M33.7,6.48A27.215,27.215,0,1,0,60.91,33.7,27.215,27.215,0,0,0,33.7,6.48Zm0,51.839A24.623,24.623,0,1,1,58.318,33.7,24.623,24.623,0,0,1,33.7,58.318Z"/>
        <path id="Path_1298221" data-name="Path 1298221" d="M78.476,69.2,64.386,56.075a1.3,1.3,0,0,0-1.8.031l-.38.38-1.555-1.555a3.937,3.937,0,0,1-.5-4.882A31.1,31.1,0,1,0,30.7,64.657q1.514.143,3.016.143a30.832,30.832,0,0,0,16.329-4.65,3.935,3.935,0,0,1,4.882.5L56.485,62.2l-.38.38a1.3,1.3,0,0,0-.031,1.8L69.2,78.468A6.5,6.5,0,0,0,73.9,80.594h.146A6.56,6.56,0,0,0,78.476,69.2ZM56.763,58.816a6.52,6.52,0,0,0-8.08-.87,28.511,28.511,0,0,1-35.147-44.41A28.2,28.2,0,0,1,33.673,5.184q.63,0,1.264.027A28.5,28.5,0,0,1,57.947,48.68a6.516,6.516,0,0,0,.87,8.08l1.555,1.555-2.053,2.058ZM76.842,76.842a3.888,3.888,0,0,1-2.893,1.166,3.945,3.945,0,0,1-2.851-1.3L58.824,63.533l.411-.411,3.888-3.888.411-.411L76.721,71.111a3.968,3.968,0,0,1,.13,5.731Z"/>
        <path id="Path_1298222" data-name="Path 1298222" d="M54.38,41.115,51.865,32.3l1.257-8.8a1.3,1.3,0,0,0-2.127-1.166l-5.228,4.488c-3.118-3.741-9.178-6.091-15.96-6.091-5.656,0-10.868,1.62-14.3,4.443a1.3,1.3,0,0,0,.045,2.037,6.48,6.48,0,0,1,0,10.368,1.3,1.3,0,0,0-.044,2.036c3.432,2.824,8.644,4.444,14.3,4.444,6.536,0,12.538-2.25,15.73-5.812l6.91,4.319a1.3,1.3,0,0,0,1.932-1.455Zm-8.445-5.672a1.3,1.3,0,0,0-1.744.35c-2.448,3.45-8.093,5.679-14.384,5.679A21.772,21.772,0,0,1,18.377,38.5a9.072,9.072,0,0,0,0-12.208,21.772,21.772,0,0,1,11.43-2.968c6.51,0,12.392,2.442,14.634,6.075a1.3,1.3,0,0,0,1.944.3l3.681-3.156-.809,5.665a1.3,1.3,0,0,0,.038.54l1.665,5.832Z"/>
        <path id="Path_1298223" data-name="Path 1298223" d="M30.9,32.407h8.2V35H30.9Z" transform="matrix(0.316, -0.949, 0.949, 0.316, -8.044, 56.228)"/>
        <path id="Path_1298224" data-name="Path 1298224" d="M24.91,31.092H35.979v2.591H24.91Z" transform="translate(-10.575 49.54) rotate(-69.444)"/>
        <path id="Path_1298225" data-name="Path 1298225" d="M22.416,30.437h6.975v2.592H22.416Z" transform="translate(-13.186 44.024) rotate(-68.209)"/>
      </g>
    </g>
  </g>
</svg>
