<svg xmlns="http://www.w3.org/2000/svg" xmlns:xlink="http://www.w3.org/1999/xlink" width="118" height="118" viewBox="0 0 118 118">
  <defs>
    <filter id="Rectangle_411831" x="0" y="0" width="118" height="118" filterUnits="userSpaceOnUse">
      <feOffset dy="3" input="SourceAlpha"/>
      <feGaussianBlur stdDeviation="3" result="blur"/>
      <feFlood flood-opacity="0.161"/>
      <feComposite operator="in" in2="blur"/>
      <feComposite in="SourceGraphic"/>
    </filter>
    <clipPath id="clip-path">
      <rect id="Rectangle_425239" data-name="Rectangle 425239" width="79" height="78" transform="translate(288.051 2823)" fill="#fff"/>
    </clipPath>
  </defs>
  <g id="Group_1205919" data-name="Group 1205919" transform="translate(-268.897 -2805.555)">
    <g id="Group_1203409" data-name="Group 1203409" transform="translate(-57.884 -1046.445)">
      <g transform="matrix(1, 0, 0, 1, 326.78, 3852)" filter="url(#Rectangle_411831)">
        <g id="Rectangle_411831-2" data-name="Rectangle 411831" transform="translate(9 6)" fill="#a9cbf1" stroke="#fff" stroke-width="2">
          <path d="M5,0H68a32,32,0,0,1,32,32V95a5,5,0,0,1-5,5H32A32,32,0,0,1,0,68V5A5,5,0,0,1,5,0Z" stroke="none"/>
          <path d="M5,1H68A31,31,0,0,1,99,32V95a4,4,0,0,1-4,4H32A31,31,0,0,1,1,68V5A4,4,0,0,1,5,1Z" fill="none"/>
        </g>
      </g>
    </g>
    <g id="Mask_Group_1108096" data-name="Mask Group 1108096" clip-path="url(#clip-path)">
      <g id="sulphite_6701621" transform="translate(287.961 2822.503)">
        <g id="Group_1206092" data-name="Group 1206092">
          <path id="Path_1298314" data-name="Path 1298314" d="M75.347,65.615a9.593,9.593,0,0,1-7.083,3.049H32.682A9.592,9.592,0,0,1,25.6,65.615a9.435,9.435,0,0,1-1.467-10.66L41.326,21.1a2.97,2.97,0,0,0-.011-2.714L36.666,9.4H64.28l-4.65,8.984a2.975,2.975,0,0,0-.009,2.714L76.815,54.955A9.437,9.437,0,0,1,75.347,65.615Z" fill="#62dbfb"/>
          <path id="Path_1298315" data-name="Path 1298315" d="M76.815,54.956,59.621,21.1a2.975,2.975,0,0,1,.009-2.714L64.28,9.4H61.195l-4.65,8.984a2.975,2.975,0,0,0-.009,2.714L73.729,54.956a9.437,9.437,0,0,1-1.467,10.66,9.593,9.593,0,0,1-7.083,3.049h3.086a9.592,9.592,0,0,0,7.083-3.049A9.437,9.437,0,0,0,76.815,54.956Z" fill="#01d0fb"/>
          <path id="Path_1298316" data-name="Path 1298316" d="M24.132,54.956A9.436,9.436,0,0,0,25.6,65.615a9.6,9.6,0,0,0,7.083,3.049H68.264a9.6,9.6,0,0,0,7.083-3.049,9.436,9.436,0,0,0,1.467-10.66L63.376,28.493H37.57Z" fill="#eaf6ff"/>
          <path id="Path_1298317" data-name="Path 1298317" d="M63.376,28.493H60.291L73.729,54.956a9.437,9.437,0,0,1-1.467,10.66A9.591,9.591,0,0,1,65.2,68.664h3.067a9.6,9.6,0,0,0,7.083-3.049,9.436,9.436,0,0,0,1.467-10.66Z" fill="#d8ecfe"/>
          <path id="Path_1298318" data-name="Path 1298318" d="M11.964,25.274v-7.3a5.2,5.2,0,1,1,10.391,0v7.3H11.964Z" fill="#7a6d79"/>
          <path id="Path_1298319" data-name="Path 1298319" d="M17.16,12.781a5.2,5.2,0,0,0-1.543.233,5.2,5.2,0,0,1,3.653,4.963v7.3h3.086v-7.3A5.2,5.2,0,0,0,17.16,12.781Z" fill="#685e68"/>
          <path id="Path_1298320" data-name="Path 1298320" d="M20.557,28.057h-6.8V40.614a3.367,3.367,0,0,0,.533,1.822,1.49,1.49,0,0,1,.231,1.036,6.306,6.306,0,0,0-.091.937,2.725,2.725,0,1,0,5.449,0,6.306,6.306,0,0,0-.091-.937,1.49,1.49,0,0,1,.231-1.036,3.367,3.367,0,0,0,.533-1.822Z" fill="#d8ecfe"/>
          <path id="Path_1298321" data-name="Path 1298321" d="M32.489,9.4a2.468,2.468,0,0,0,2.469,2.469H65.989a2.469,2.469,0,0,0,0-4.937H34.957A2.469,2.469,0,0,0,32.489,9.4Z" fill="#62dbfb"/>
          <path id="Path_1298322" data-name="Path 1298322" d="M65.989,6.931H62.9a2.469,2.469,0,0,1,0,4.937h3.086a2.469,2.469,0,0,0,0-4.937Z" fill="#01d0fb"/>
          <path id="Path_1298323" data-name="Path 1298323" d="M4.009,59.734,7.351,70.819a1.748,1.748,0,0,0,1.674,1.244h16.27a1.748,1.748,0,0,0,1.674-1.244L30.31,59.734Z" fill="#5f99d7"/>
          <path id="Path_1298324" data-name="Path 1298324" d="M27.07,59.734,23.729,70.819a1.748,1.748,0,0,1-1.674,1.244h3.24a1.748,1.748,0,0,0,1.674-1.244L30.31,59.734Z" fill="#3c87d0"/>
          <path id="Path_1298325" data-name="Path 1298325" d="M1.157,58.474v1.981a1.858,1.858,0,0,0,1.858,1.858H31.3a1.858,1.858,0,0,0,1.858-1.858V58.474A1.858,1.858,0,0,0,31.3,56.616H3.015A1.858,1.858,0,0,0,1.157,58.474Z" fill="#62dbfb"/>
          <path id="Path_1298326" data-name="Path 1298326" d="M31.3,56.616h-3.24a1.858,1.858,0,0,1,1.858,1.858v1.981a1.858,1.858,0,0,1-1.858,1.858H31.3a1.858,1.858,0,0,0,1.858-1.858V58.474A1.858,1.858,0,0,0,31.3,56.616Z" fill="#01d0fb"/>
          <path id="Path_1298327" data-name="Path 1298327" d="M7.932,24.875v4.17a1.306,1.306,0,0,0,1.306,1.306H25.08a1.306,1.306,0,0,0,1.306-1.306v-4.17a1.306,1.306,0,0,0-1.306-1.306H9.239A1.306,1.306,0,0,0,7.932,24.875Z" fill="#a2e62e"/>
          <path id="Path_1298328" data-name="Path 1298328" d="M25.081,23.569H21.995A1.306,1.306,0,0,1,23.3,24.875v4.17a1.306,1.306,0,0,1-1.306,1.306h3.086a1.306,1.306,0,0,0,1.306-1.306v-4.17A1.306,1.306,0,0,0,25.081,23.569Z" fill="#80d261"/>
        </g>
        <g id="Group_1206094" data-name="Group 1206094">
          <path id="Path_1298331" data-name="Path 1298331" d="M11.963,23.569V17.978a5.2,5.2,0,1,1,10.391,0v5.591" fill="none" stroke="#000" stroke-linecap="round" stroke-linejoin="round" stroke-miterlimit="10" stroke-width="2.314"/>
          <path id="Path_1298332" data-name="Path 1298332" d="M20.557,30.352V40.615a3.36,3.36,0,0,1-.534,1.822,1.485,1.485,0,0,0-.23,1.037,6.376,6.376,0,0,1,.091.937,2.725,2.725,0,1,1-5.449,0,6.376,6.376,0,0,1,.091-.937,1.493,1.493,0,0,0-.23-1.037,3.36,3.36,0,0,1-.534-1.822V30.352" fill="none" stroke="#000" stroke-linecap="round" stroke-linejoin="round" stroke-miterlimit="10" stroke-width="2.314"/>
          <path id="Path_1298333" data-name="Path 1298333" d="M63,11.87,59.63,18.384a2.975,2.975,0,0,0-.009,2.714l6.04,11.894" fill="none" stroke="#000" stroke-linecap="round" stroke-linejoin="round" stroke-miterlimit="10" stroke-width="2.314"/>
          <path id="Path_1298334" data-name="Path 1298334" d="M37.944,11.87l3.371,6.514a2.97,2.97,0,0,1,.011,2.714L24.132,54.956a9.362,9.362,0,0,0-.653,1.66" fill="none" stroke="#000" stroke-linecap="round" stroke-linejoin="round" stroke-miterlimit="10" stroke-width="2.314"/>
          <path id="Path_1298335" data-name="Path 1298335" d="M68.118,37.828l8.7,17.127a9.437,9.437,0,0,1-1.467,10.66,9.593,9.593,0,0,1-7.083,3.049H32.682a9.822,9.822,0,0,1-4.706-1.19" fill="none" stroke="#000" stroke-linecap="round" stroke-linejoin="round" stroke-miterlimit="10" stroke-width="2.314"/>
          <path id="Path_1298336" data-name="Path 1298336" d="M32.489,9.4a2.468,2.468,0,0,0,2.469,2.469H65.989a2.469,2.469,0,0,0,0-4.937H34.958A2.469,2.469,0,0,0,32.489,9.4Z" fill="none" stroke="#000" stroke-linecap="round" stroke-linejoin="round" stroke-miterlimit="10" stroke-width="2.314"/>
          <line id="Line_812" data-name="Line 812" x1="25.806" transform="translate(37.57 28.494)" fill="none" stroke="#000" stroke-linecap="round" stroke-linejoin="round" stroke-miterlimit="10" stroke-width="2.314"/>
          <path id="Path_1298337" data-name="Path 1298337" d="M4.788,62.314,7.35,70.819a1.748,1.748,0,0,0,1.674,1.244H25.3a1.748,1.748,0,0,0,1.674-1.244l2.563-8.506" fill="none" stroke="#000" stroke-linecap="round" stroke-linejoin="round" stroke-miterlimit="10" stroke-width="2.314"/>
          <path id="Path_1298338" data-name="Path 1298338" d="M8.927,56.616H3.015a1.858,1.858,0,0,0-1.858,1.858v1.981a1.858,1.858,0,0,0,1.858,1.858H31.3a1.858,1.858,0,0,0,1.858-1.858V58.474A1.858,1.858,0,0,0,31.3,56.616H14.327" fill="none" stroke="#000" stroke-linecap="round" stroke-linejoin="round" stroke-miterlimit="10" stroke-width="2.314"/>
          <path id="Path_1298339" data-name="Path 1298339" d="M7.932,24.875v4.17a1.306,1.306,0,0,0,1.306,1.306H25.081a1.306,1.306,0,0,0,1.306-1.306v-4.17a1.306,1.306,0,0,0-1.306-1.306H9.239A1.306,1.306,0,0,0,7.932,24.875Z" fill="none" stroke="#000" stroke-linecap="round" stroke-linejoin="round" stroke-miterlimit="10" stroke-width="2.314"/>
        </g>
      </g>
    </g>
  </g>
</svg>
